<svg xmlns="http://www.w3.org/2000/svg" version="1.1" xmlns:xlink="http://www.w3.org/1999/xlink" xmlns:svgjs="http://svgjs.dev/svgjs" width="610" height="680" preserveAspectRatio="none" viewBox="0 0 610 680"><g mask="url(&quot;#SvgjsMask1128&quot;)" fill="none"><rect width="610" height="680" x="0" y="0" fill="rgba(216, 209, 255, 1)"></rect><path d="M0,252.255C47.534,253.995,95.066,235.148,131.367,204.412C165.546,175.473,179.998,131.075,193.538,88.386C205.733,49.938,207.892,10.712,205.578,-29.558C203.066,-73.26,202.506,-118.301,179.519,-155.554C154.466,-196.155,117.973,-232.438,72.164,-245.768C26.393,-259.088,-20.76,-239.88,-66.715,-227.209C-113.434,-214.327,-163.095,-205.228,-197.744,-171.346C-233.73,-136.156,-258.933,-87.787,-260.728,-37.487C-262.458,10.98,-231.642,52.733,-207.236,94.642C-185.055,132.731,-160.412,168.334,-125.329,195.016C-88.018,223.393,-46.845,250.54,0,252.255" fill="#a595ff"></path><path d="M610 962.413C665.321 967.717 725.102 961.685 769.831 928.702 813.706 896.3489999999999 824.12 837.7139999999999 846.512 788.011 868.775 738.594 899.232 692.384 900.707 638.203 902.3430000000001 578.123 894.727 512.809 855.237 467.501 815.7760000000001 422.225 751.816 408.261 692.437 399.246 638.497 391.057 586.862 408.493 533.251 418.616 473.10400000000004 429.973 394.297 412.455 358.714 462.26 322.362 513.141 375 583.236 371.052 645.644 367.55899999999997 700.855 317.21 753.011 337.052 804.651 356.878 856.249 420.865 872.172 468.722 899.833 514.237 926.14 557.669 957.396 610 962.413" fill="#ffffff"></path></g><defs><mask id="SvgjsMask1128"><rect width="1000" height="1000" fill="#ffffff"></rect></mask></defs></svg>